<svg width="24" height="24" viewBox="0 0 24 24" fill="none" xmlns="http://www.w3.org/2000/svg" class="ltr-1cmwivn" data-name="EnvelopeStar"><path fill-rule="evenodd" clip-rule="evenodd" d="M11.4961 16.8648L12 17.1587L12.5039 16.8648L13.4429 16.317L19.9503 21.001H4.04967L10.5571 16.317L11.4961 16.8648ZM22 20.0121L15.3339 15.2139L22 11.3253V20.0121ZM24 10.1587V9.00098L23.0739 8.3835L12.5547 1.36988C12.2188 1.1459 11.7812 1.1459 11.4453 1.36988L0.926103 8.3835L0 9.00098V10.1587V21.001C0 21.1447 0.0151608 21.2849 0.0439705 21.42C0.0881772 21.6274 0.16452 21.8228 0.267537 22.0009C0.334313 22.1164 0.412297 22.2245 0.5 22.3239C0.737957 22.5935 1.04747 22.7985 1.39881 22.909C1.58857 22.9688 1.79052 23.001 2 23.001H22C22.2095 23.001 22.4114 22.9688 22.6012 22.909C22.9525 22.7985 23.262 22.5935 23.5 22.3239C23.5877 22.2245 23.6657 22.1164 23.7325 22.0009C23.8355 21.8228 23.9118 21.6274 23.956 21.42C23.9848 21.2849 24 21.1447 24 21.001V10.1587ZM12 3.40379L21.151 9.5052L12.9961 14.2622L12 14.8433L11.0039 14.2622L2.84901 9.5052L12 3.40379ZM2 20.0121V11.3253L8.66609 15.2139L2 20.0121ZM10.4951 9.3478L9.75642 11.7362C9.72941 11.8235 9.82753 11.8961 9.90308 11.8446L12 10.4173L14.0969 11.8446C14.1725 11.8961 14.2706 11.8235 14.2436 11.7362L13.5049 9.3478L15.2971 8.01871C15.3683 7.9659 15.3367 7.85334 15.2483 7.84578C14.5113 7.78268 13.7571 7.74065 12.9889 7.72116L12.0908 5.24985C12.06 5.16503 11.94 5.16503 11.9092 5.24985L11.0111 7.72116C10.2429 7.74065 9.48866 7.78269 8.75166 7.84578C8.66332 7.85334 8.63173 7.9659 8.70295 8.01871L10.4951 9.3478Z" fill="currentColor"></path></svg>