<svg width="24" height="24" viewBox="0 0 24 24" fill="none" xmlns="http://www.w3.org/2000/svg" class="ltr-1cmwivn" data-name="GameController"><path fill-rule="evenodd" clip-rule="evenodd" d="M0.767749 7.68811C0.932447 5.05293 3.1177 3 5.75801 3H18.2424C20.8827 3 23.068 5.05293 23.2327 7.68811L23.7327 15.6881C23.9126 18.5666 21.6265 21 18.7424 21H18.2794C15.896 21 13.8439 19.3177 13.3765 16.9806L13.1804 16H10.82L10.6239 16.9806C10.1565 19.3177 8.1044 21 5.72099 21H5.25801C2.3739 21 0.0878432 18.5666 0.267749 15.6881L0.767749 7.68811ZM5.75801 5C4.17382 5 2.86267 6.23176 2.76385 7.81286L2.26385 15.8129C2.15591 17.54 3.52755 19 5.25801 19H5.72099C7.15103 19 8.38228 17.9906 8.66273 16.5883L9.01963 14.8039L9.1804 14H10.0002H14.0002H14.82L14.9808 14.8039L15.3377 16.5883C15.6181 17.9906 16.8494 19 18.2794 19H18.7424C20.4729 19 21.8445 17.54 21.7366 15.8129L21.2366 7.81287C21.1377 6.23176 19.8266 5 18.2424 5H5.75801ZM6.00021 9V7H8.00021V9H10.0002V11H8.00021V13H6.00021V11H4.00021V9H6.00021ZM18.0002 8C18.0002 8.55228 17.5525 9 17.0002 9C16.4479 9 16.0002 8.55228 16.0002 8C16.0002 7.44772 16.4479 7 17.0002 7C17.5525 7 18.0002 7.44772 18.0002 8ZM15.0002 11C15.5525 11 16.0002 10.5523 16.0002 10C16.0002 9.44772 15.5525 9 15.0002 9C14.4479 9 14.0002 9.44772 14.0002 10C14.0002 10.5523 14.4479 11 15.0002 11ZM18.0002 12C18.0002 12.5523 17.5525 13 17.0002 13C16.4479 13 16.0002 12.5523 16.0002 12C16.0002 11.4477 16.4479 11 17.0002 11C17.5525 11 18.0002 11.4477 18.0002 12ZM19.0002 11C19.5525 11 20.0002 10.5523 20.0002 10C20.0002 9.44772 19.5525 9 19.0002 9C18.4479 9 18.0002 9.44772 18.0002 10C18.0002 10.5523 18.4479 11 19.0002 11Z" fill="currentColor"></path></svg>