<svg width="24" height="24" viewBox="0 0 24 24" fill="none" xmlns="http://www.w3.org/2000/svg" class="ltr-1cmwivn" data-name="UserOk"><path fill-rule="evenodd" clip-rule="evenodd" d="M5.00011 8C5.00011 6.34315 6.34326 5 8.00011 5C9.65697 5 11.0001 6.34315 11.0001 8C11.0001 9.65685 9.65697 11 8.00011 11C6.34326 11 5.00011 9.65685 5.00011 8ZM8.00011 3C5.23869 3 3.00011 5.23858 3.00011 8C3.00011 10.7614 5.23869 13 8.00011 13C10.7615 13 13.0001 10.7614 13.0001 8C13.0001 5.23858 10.7615 3 8.00011 3ZM23.2072 10.2071L18.7072 14.7071L18.0001 15.4142L17.293 14.7071L14.793 12.2071L16.2072 10.7929L18.0001 12.5858L21.793 8.79289L23.2072 10.2071ZM7.09913 17C4.61095 17 2.46867 18.7563 1.98069 21.1961L0.0195312 20.8039C0.694473 17.4292 3.65759 15 7.09913 15H8.90109C12.3426 15 15.3057 17.4292 15.9807 20.8039L14.0195 21.1961C13.5316 18.7563 11.3893 17 8.90109 17H7.09913Z" fill="currentColor"></path></svg>